<?xml version="1.0" encoding="UTF-8"?>
<svg width="348px" height="110px" viewBox="0 0 348 110" version="1.1" xmlns="http://www.w3.org/2000/svg" xmlns:xlink="http://www.w3.org/1999/xlink">
    <title>Group</title>
    <g id="Page-1" stroke="none" stroke-width="1" fill="none" fill-rule="evenodd">
        <g id="Group">
            <rect id="Rectangle" fill="#5865F2" x="0" y="0" width="348" height="110" rx="10"></rect>
            <g id="Discord-Logo+Wordmark-White" transform="translate(28.000000, 27.764600)" fill="#FFFFFF" fill-rule="nonzero">
                <path d="M61.7958002,4.7294 C57.0736002,2.52 52.0244002,0.9143 46.7456002,0 C46.0973002,1.1721 45.3399002,2.7486 44.8177002,4.0027 C39.2062002,3.1588 33.6463002,3.1588 28.1380002,4.0027 C27.6159002,2.7486 26.8413002,1.1721 26.1872002,0 C20.9027002,0.9143 15.8477002,2.5259 11.1255002,4.7411 C1.60078022,19.1342 -0.981214781,33.1698 0.309785219,47.0061 C6.62708022,51.7237 12.7493002,54.5895 18.7682002,56.4648 C20.2543002,54.4195 21.5797002,52.2453 22.7215002,49.9539 C20.5469002,49.1276 18.4641002,48.1079 16.4961002,46.9241 C17.0182002,46.5373 17.5289002,46.1329 18.0223002,45.7168 C30.0257002,51.3311 43.0677002,51.3311 54.9277002,45.7168 C55.4269002,46.1329 55.9375002,46.5373 56.4539002,46.9241 C54.4801002,48.1137 52.3916002,49.1334 50.2170002,49.9598 C51.3588002,52.2453 52.6785002,54.4254 54.1703002,56.4706 C60.1950002,54.5953 66.3229002,51.7296 72.6402002,47.0061 C74.1550002,30.9663 70.0525002,17.0596 61.7958002,4.7294 Z M24.3568002,38.4969 C20.7535002,38.4969 17.7985002,35.133 17.7985002,31.0366 C17.7985002,26.9402 20.6904002,23.5705 24.3568002,23.5705 C28.0233002,23.5705 30.9782002,26.9343 30.9151002,31.0366 C30.9208002,35.133 28.0233002,38.4969 24.3568002,38.4969 Z M48.5932002,38.4969 C44.9899002,38.4969 42.0349002,35.133 42.0349002,31.0366 C42.0349002,26.9402 44.9267002,23.5705 48.5932002,23.5705 C52.2596002,23.5705 55.2146002,26.9343 55.1515002,31.0366 C55.1515002,35.133 52.2596002,38.4969 48.5932002,38.4969 Z" id="Shape"></path>
                <path d="M98.0293002,14.4061 L113.693,14.4061 C117.469,14.4061 120.659,15.0097 123.276,16.2111 C125.886,17.4124 127.843,19.0885 129.14,21.2334 C130.436,23.3783 131.09,25.8338 131.09,28.5999 C131.09,31.3074 130.413,33.7629 129.059,35.9605 C127.705,38.164 125.645,39.9046 122.874,41.188 C120.103,42.4714 116.671,43.116 112.569,43.116 L98.0293002,43.116 L98.0293002,14.4061 Z M112.408,35.8199 C114.95,35.8199 116.907,35.1694 118.272,33.8742 C119.638,32.5732 120.321,30.8034 120.321,28.5589 C120.321,26.4784 119.712,24.8199 118.496,23.5775 C117.28,22.3351 115.438,21.7081 112.976,21.7081 L108.076,21.7081 L108.076,35.8199 L112.408,35.8199 Z" id="Shape"></path>
                <path d="M154.541,43.081 C152.372,42.5067 150.415,41.6745 148.677,40.5786 L148.677,33.7689 C149.991,34.8061 151.752,35.6618 153.961,36.3357 C156.17,37.0038 158.305,37.3378 160.37,37.3378 C161.334,37.3378 162.063,37.2089 162.556,36.951 C163.05,36.6932 163.297,36.3826 163.297,36.0251 C163.297,35.6149 163.165,35.275 162.895,34.9995 C162.625,34.7241 162.103,34.4955 161.329,34.3021 L156.509,33.1945 C153.749,32.5382 151.792,31.6298 150.628,30.4636 C149.463,29.3032 148.883,27.7795 148.883,25.8925 C148.883,24.3043 149.388,22.9272 150.41,21.7492 C151.425,20.5713 152.871,19.6629 154.747,19.0241 C156.624,18.3795 158.815,18.0572 161.334,18.0572 C163.583,18.0572 165.643,18.3033 167.52,18.7956 C169.396,19.2879 170.945,19.9149 172.179,20.6826 L172.179,27.1232 C170.916,26.3555 169.47,25.7519 167.818,25.2947 C166.171,24.8435 164.479,24.6208 162.734,24.6208 C160.215,24.6208 158.959,25.0603 158.959,25.9335 C158.959,26.3438 159.154,26.6485 159.544,26.8536 C159.934,27.0587 160.651,27.2697 161.69,27.4924 L165.706,28.2308 C168.329,28.6938 170.285,29.5084 171.57,30.6687 C172.856,31.8291 173.498,33.5462 173.498,35.82 C173.498,38.3106 172.437,40.2856 170.308,41.7507 C168.179,43.2158 165.161,43.9483 161.248,43.9483 C158.947,43.9425 156.71,43.6553 154.541,43.081 Z" id="Path"></path>
                <path d="M182.978,42.2193 C180.678,41.0706 178.939,39.5118 177.78,37.5427 C176.621,35.5736 176.036,33.3584 176.036,30.897 C176.036,28.4357 176.638,26.2322 177.843,24.2924 C179.048,22.3526 180.815,20.8289 183.145,19.7213 C185.474,18.6137 188.257,18.0628 191.499,18.0628 C195.515,18.0628 198.849,18.9243 201.5,20.6472 L201.5,28.1544 C200.565,27.498 199.474,26.9647 198.229,26.5545 C196.984,26.1443 195.653,25.9391 194.23,25.9391 C191.74,25.9391 189.795,26.4021 188.389,27.3339 C186.983,28.2657 186.278,29.4788 186.278,30.9849 C186.278,32.4617 186.96,33.669 188.326,34.6184 C189.692,35.5619 191.671,36.0366 194.27,36.0366 C195.607,36.0366 196.927,35.8373 198.229,35.4447 C199.526,35.0462 200.645,34.5598 201.58,33.9854 L201.58,41.2464 C198.637,43.0514 195.223,43.9539 191.338,43.9539 C188.068,43.9422 185.279,43.3679 182.978,42.2193 Z" id="Path"></path>
                <path d="M211.518,42.2195 C209.2,41.0709 207.433,39.5003 206.216,37.5019 C205,35.5035 204.386,33.2766 204.386,30.8152 C204.386,28.3539 204.994,26.1562 206.216,24.2282 C207.438,22.3001 209.194,20.7881 211.501,19.6922 C213.801,18.5963 216.55,18.0513 219.734,18.0513 C222.919,18.0513 225.667,18.5963 227.968,19.6922 C230.269,20.7881 232.025,22.2884 233.23,24.2047 C234.435,26.1211 235.037,28.3187 235.037,30.8094 C235.037,33.2707 234.435,35.4977 233.23,37.496 C232.025,39.4944 230.263,41.065 227.945,42.2136 C225.627,43.3623 222.89,43.9366 219.729,43.9366 C216.567,43.9366 213.83,43.3681 211.518,42.2195 Z M223.722,34.9409 C224.698,33.9447 225.191,32.6261 225.191,30.9852 C225.191,29.3443 224.703,28.0374 223.722,27.0704 C222.747,26.0976 221.415,25.6112 219.729,25.6112 C218.013,25.6112 216.67,26.0976 215.689,27.0704 C214.714,28.0433 214.226,29.3443 214.226,30.9852 C214.226,32.6261 214.714,33.9447 215.689,34.9409 C216.665,35.9372 218.013,36.4412 219.729,36.4412 C221.415,36.4353 222.747,35.9372 223.722,34.9409 Z" id="Shape"></path>
                <path d="M259.17,19.5749 L259.17,28.4358 C258.149,27.7501 256.829,27.4102 255.194,27.4102 C253.053,27.4102 251.401,28.0725 250.253,29.3969 C249.1,30.7214 248.526,32.7842 248.526,35.5737 L248.526,43.1219 L238.686,43.1219 L238.686,19.1237 L248.326,19.1237 L248.326,26.7539 C248.859,23.9643 249.726,21.9074 250.919,20.577 C252.107,19.2526 253.644,18.5904 255.515,18.5904 C256.932,18.5904 258.149,18.9186 259.17,19.5749 Z" id="Path"></path>
                <path d="M291.864,13.5857 L291.864,43.122 L282.023,43.122 L282.023,37.7481 C281.191,39.7699 279.929,41.3112 278.231,42.366 C276.532,43.4151 274.432,43.9425 271.942,43.9425 C269.716,43.9425 267.777,43.3916 266.118,42.284 C264.46,41.1764 263.181,39.6586 262.28,37.7305 C261.385,35.8024 260.931,33.6224 260.931,31.1845 C260.903,28.6704 261.379,26.4141 262.36,24.4157 C263.336,22.4173 264.718,20.8585 266.497,19.7391 C268.276,18.6198 270.307,18.0572 272.585,18.0572 C277.273,18.0572 280.417,20.1376 282.023,24.2926 L282.023,13.5857 L291.864,13.5857 Z M280.555,34.7769 C281.559,33.7806 282.058,32.4855 282.058,30.9032 C282.058,29.3736 281.57,28.1253 280.595,27.1701 C279.619,26.2149 278.282,25.7343 276.601,25.7343 C274.943,25.7343 273.618,26.2207 272.625,27.1935 C271.632,28.1664 271.139,29.4263 271.139,30.9852 C271.139,32.5441 271.632,33.8158 272.625,34.8003 C273.618,35.7848 274.926,36.2771 276.561,36.2771 C278.219,36.2713 279.55,35.7731 280.555,34.7769 Z" id="Shape"></path>
                <path d="M139.382,21.6786 C142.091,21.6786 144.288,19.6635 144.288,17.1778 C144.288,14.6921 142.091,12.6771 139.382,12.6771 C136.672,12.6771 134.476,14.6921 134.476,17.1778 C134.476,19.6635 136.672,21.6786 139.382,21.6786 Z" id="Path"></path>
                <path d="M134.472,24.7789 C137.478,26.1033 141.208,26.1619 144.283,24.7789 L144.283,43.2508 L134.472,43.2508 L134.472,24.7789 Z" id="Path"></path>
            </g>
        </g>
    </g>
</svg>