<?xml version="1.0" encoding="UTF-8"?>
<svg width="192px" height="192px" viewBox="0 0 192 192" version="1.1" xmlns="http://www.w3.org/2000/svg" xmlns:xlink="http://www.w3.org/1999/xlink">
    <title>Group</title>
    <defs>
        <linearGradient x1="100%" y1="50%" x2="0%" y2="50%" id="linearGradient-1">
            <stop stop-color="#C949FF" offset="0%"></stop>
            <stop stop-color="#C948FF" offset="0%"></stop>
            <stop stop-color="#0002FC" offset="100%"></stop>
        </linearGradient>
    </defs>
    <g id="Page-1" stroke="none" stroke-width="1" fill="none" fill-rule="evenodd">
        <g id="Group">
            <circle id="Oval" fill="url(#linearGradient-1)" cx="96" cy="96" r="96"></circle>
            <g id="logo5" transform="translate(28.800000, 50.880000)" fill="#FFFFFF" fill-rule="nonzero">
                <path d="M127.68,67.5184025 C127.667218,69.2638851 127.31342,71.0741137 126.375092,72.7700184 C124.333485,76.457528 120.298783,78.458703 114.380792,78.7161759 L114.295249,78.72 L30.8177908,78.72 C28.4352759,78.7136266 7.45993724,78.3503547 1.60195772,67.7479673 C0.0314904126,64.9017096 -0.88270586,60.3028405 1.25977339,55.9206612 C2.84939356,52.6690738 6.70661827,48.4793585 16.0604921,46.9816639 C27.5568384,45.1423672 56.9233407,33.2245585 65.5915554,29.6415731 L65.5915554,9.28952225 C65.5915554,0.448669003 71.3116411,0 72.4569351,0 C72.948505,0 73.3838932,0.0573608398 73.7401229,0.127461789 C82.9139598,0.655154537 107.99295,13.5748322 113.019729,16.2082242 L114.042451,16.7435651 L114.619564,17.7416032 C125.940987,37.2511208 127.579128,53.2859945 125.989508,60.0683052 C126.724688,61.7433024 127.659057,64.433664 127.68,67.3210893 L127.68,67.5184025 Z M114.115219,70.7408003 C116.885878,70.6069651 118.798536,69.9467051 119.373102,68.9180745 C120.232387,67.3821394 119.184134,64.0782966 118.206102,62.3282278 L117.077407,60.3117633 L118.181848,58.4418809 C118.848341,56.4955173 119.648897,42.8276398 108.273845,22.7368859 C96.5655539,16.6645413 79.0529045,8.58974698 73.6507429,8.11430284 C73.613714,8.41001635 73.5869,8.79622577 73.5869,9.28951551 L73.5869,34.9453095 L71.1456496,35.9764894 C69.5458146,36.6520389 31.7626182,52.5530842 17.3270808,54.8627129 C12.670577,55.6083701 9.51686703,57.2246036 8.44307707,59.4220667 C7.58634615,61.1734101 8.13919847,63.0573209 8.60267751,63.8960234 C11.426965,69.0073025 24.7976639,70.7140319 30.8305662,70.7408003 L57.9984075,70.7408003 L65.9924752,70.7408003 L72.7876277,70.7408003 L80.7816954,70.7408003 L87.5768479,70.7408003 L95.5709156,70.7408003 L114.115219,70.7408003 Z" id="Shape"></path>
            </g>
        </g>
    </g>
</svg>