<?xml version="1.0" encoding="UTF-8"?>
<svg width="190px" height="117px" viewBox="0 0 190 117" version="1.1" xmlns="http://www.w3.org/2000/svg" xmlns:xlink="http://www.w3.org/1999/xlink">
    <title>logo5</title>
    <defs>
        <linearGradient x1="-21.1991936%" y1="102.810461%" x2="121.199189%" y2="102.810461%" id="linearGradient-1">
            <stop stop-color="#0002FC" offset="0%"></stop>
            <stop stop-color="#9923FF" offset="100%"></stop>
        </linearGradient>
    </defs>
    <g id="Page-1" stroke="none" stroke-width="1" fill="none" fill-rule="evenodd">
        <g id="Logos" transform="translate(-403.000000, -280.000000)" fill="url(#linearGradient-1)" fill-rule="nonzero">
            <g id="logo5" transform="translate(403.504268, 280.000010)">
                <path d="M188.991472,100.11081 C188.972552,102.69887 188.448862,105.38293 187.059952,107.89748 C184.037972,113.36502 178.065822,116.3322 169.306032,116.71396 L169.179412,116.71963 L45.616382,116.71963 C42.089792,116.71018 11.042172,116.17155 2.37121199,100.45119 C0.0466119943,96.23099 -1.30657801,89.41216 1.86471199,82.91462 C4.21766199,78.09343 9.92711199,71.88126 23.772682,69.6606 C40.789532,66.93344 84.257722,49.26268 97.088382,43.95012 L97.088382,13.77375 C97.088382,0.66525 105.555232,0 107.250492,0 C107.978112,0 108.622572,0.08505 109.149862,0.18899 C122.728942,0.97141 159.850772,20.12766 167.291392,24.03224 L168.805222,24.826 L169.659462,26.30581 C186.417392,55.23294 188.842162,79.00815 186.489212,89.06441 C187.577422,91.54796 188.960472,95.53701 188.991472,99.81825 L188.991472,100.11081 Z M168.912932,104.88872 C173.014052,104.69028 175.845162,103.7113 176.695632,102.18613 C177.967542,99.90877 176.415922,95.0101 174.968242,92.41524 L173.297552,89.42539 L174.932342,86.65288 C175.918882,83.76697 177.103862,63.50135 160.266552,33.71241 C142.935982,24.70883 117.013822,12.73618 109.017562,12.03123 C108.962752,12.46969 108.923062,13.04233 108.923062,13.77374 L108.923062,51.81407 L105.309532,53.34302 C102.941462,54.34467 47.014912,77.92145 25.647482,81.34598 C18.754942,82.45158 14.086832,84.848 12.497412,88.10622 C11.229282,90.70297 12.047612,93.49628 12.733652,94.73984 C16.914152,102.31843 36.705412,104.84903 45.635292,104.88872 L85.849032,104.88872 L97.681822,104.88872 L107.739982,104.88872 L119.572772,104.88872 L129.630932,104.88872 L141.463722,104.88872 L168.912932,104.88872 Z" id="Shape"></path>
            </g>
        </g>
    </g>
</svg>